<svg width="113" height="31" viewBox="0 0 113 31" fill="none" xmlns="http://www.w3.org/2000/svg">
<path d="M11.2012 17.1424C11.2012 15.704 11.4574 14.4475 11.97 13.3728C12.499 12.2981 13.21 11.4715 14.1028 10.8928C15.0121 10.3141 16.0206 10.0248 17.1284 10.0248C18.0873 10.0248 18.914 10.2149 19.6084 10.5952C20.3028 10.9755 20.8401 11.488 21.2204 12.1328V10.1984H26.0812V24.1112H21.2204V22.1768C20.8401 22.8216 20.2945 23.3341 19.5836 23.7144C18.8892 24.0947 18.0708 24.2848 17.1284 24.2848C16.0206 24.2848 15.0121 23.9955 14.1028 23.4168C13.21 22.8381 12.499 22.0115 11.97 20.9368C11.4574 19.8456 11.2012 18.5808 11.2012 17.1424ZM21.2204 17.1424C21.2204 16.2496 20.9724 15.5469 20.4764 15.0344C19.9969 14.5219 19.4017 14.2656 18.6908 14.2656C17.9633 14.2656 17.3598 14.5219 16.8804 15.0344C16.4009 15.5304 16.1612 16.2331 16.1612 17.1424C16.1612 18.0352 16.4009 18.7461 16.8804 19.2752C17.3598 19.7877 17.9633 20.044 18.6908 20.044C19.4017 20.044 19.9969 19.7877 20.4764 19.2752C20.9724 18.7627 21.2204 18.0517 21.2204 17.1424Z" fill="white"/>
<path d="M33.2158 12.1328C33.5961 11.4715 34.1334 10.9589 34.8278 10.5952C35.5222 10.2149 36.3406 10.0248 37.283 10.0248C38.3908 10.0248 39.391 10.3141 40.2838 10.8928C41.1931 11.4715 41.9041 12.2981 42.4166 13.3728C42.9457 14.4475 43.2102 15.704 43.2102 17.1424C43.2102 18.5808 42.9457 19.8456 42.4166 20.9368C41.9041 22.0115 41.1931 22.8381 40.2838 23.4168C39.391 23.9955 38.3908 24.2848 37.283 24.2848C36.3406 24.2848 35.5222 24.1029 34.8278 23.7392C34.1334 23.3589 33.5961 22.8381 33.2158 22.1768V24.1112H28.355V3.46289H33.2158V12.1328ZM38.275 17.1424C38.275 16.2331 38.027 15.5304 37.531 15.0344C37.0516 14.5219 36.4564 14.2656 35.7454 14.2656C35.0345 14.2656 34.431 14.5219 33.935 15.0344C33.4556 15.5469 33.2158 16.2496 33.2158 17.1424C33.2158 18.0517 33.4556 18.7627 33.935 19.2752C34.431 19.7877 35.0345 20.044 35.7454 20.044C36.4564 20.044 37.0516 19.7877 37.531 19.2752C38.027 18.7461 38.275 18.0352 38.275 17.1424Z" fill="white"/>
<path d="M47.1705 8.90879C46.3107 8.90879 45.6163 8.67732 45.0873 8.21439C44.5747 7.73492 44.3185 7.13972 44.3185 6.42879C44.3185 5.70132 44.5747 5.09785 45.0873 4.61839C45.6163 4.13892 46.3107 3.89919 47.1705 3.89919C48.0137 3.89919 48.6915 4.13892 49.2041 4.61839C49.7331 5.09785 49.9977 5.70132 49.9977 6.42879C49.9977 7.13972 49.7331 7.73492 49.2041 8.21439C48.6915 8.67732 48.0137 8.90879 47.1705 8.90879ZM49.5761 10.1984V24.1112H44.7153V10.1984H49.5761Z" fill="white"/>
<path d="M51.0546 17.1424C51.0546 15.704 51.3108 14.4475 51.8234 13.3728C52.3524 12.2981 53.0634 11.4715 53.9562 10.8928C54.8655 10.3141 55.874 10.0248 56.9818 10.0248C57.9407 10.0248 58.7674 10.2149 59.4618 10.5952C60.1562 10.9755 60.6935 11.488 61.0738 12.1328V10.1984H65.9346V24.1112H61.0738V22.1768C60.6935 22.8216 60.1479 23.3341 59.437 23.7144C58.7426 24.0947 57.9242 24.2848 56.9818 24.2848C55.874 24.2848 54.8655 23.9955 53.9562 23.4168C53.0634 22.8381 52.3524 22.0115 51.8234 20.9368C51.3108 19.8456 51.0546 18.5808 51.0546 17.1424ZM61.0738 17.1424C61.0738 16.2496 60.8258 15.5469 60.3298 15.0344C59.8503 14.5219 59.2551 14.2656 58.5442 14.2656C57.8167 14.2656 57.2132 14.5219 56.7338 15.0344C56.2543 15.5304 56.0146 16.2331 56.0146 17.1424C56.0146 18.0352 56.2543 18.7461 56.7338 19.2752C57.2132 19.7877 57.8167 20.044 58.5442 20.044C59.2551 20.044 59.8503 19.7877 60.3298 19.2752C60.8258 18.7627 61.0738 18.0517 61.0738 17.1424Z" fill="white"/>
<path d="M69.9692 14.1912C70.3495 13.1 71.0356 12.2072 72.0276 11.5128C73.0362 10.8184 74.2514 10.4712 75.6732 10.4712C76.9297 10.4712 78.0458 10.7523 79.0212 11.3144C80.0132 11.8765 80.782 12.6784 81.3276 13.72C81.8897 14.7616 82.1708 15.9768 82.1708 17.3656C82.1708 18.7544 81.8897 19.9779 81.3276 21.036C80.782 22.0776 80.0132 22.8877 79.0212 23.4664C78.0458 24.0285 76.9297 24.3096 75.6732 24.3096C74.2679 24.3096 73.061 23.9624 72.0524 23.268C71.0604 22.5571 70.366 21.6643 69.9692 20.5896V30.46H68.8532V10.6448H69.9692V14.1912ZM81.03 17.3656C81.03 16.1421 80.7986 15.084 80.3356 14.1912C79.8727 13.2984 79.2196 12.6205 78.3764 12.1576C77.5498 11.6781 76.5908 11.4384 75.4996 11.4384C74.458 11.4384 73.5156 11.6864 72.6724 12.1824C71.8292 12.6619 71.1679 13.3563 70.6884 14.2656C70.209 15.1584 69.9692 16.1917 69.9692 17.3656C69.9692 18.556 70.209 19.6059 70.6884 20.5152C71.1679 21.408 71.8292 22.1024 72.6724 22.5984C73.5156 23.0779 74.458 23.3176 75.4996 23.3176C76.5908 23.3176 77.5498 23.0779 78.3764 22.5984C79.2196 22.1189 79.8727 21.4328 80.3356 20.54C80.7986 19.6472 81.03 18.5891 81.03 17.3656Z" fill="white"/>
<path d="M84.3495 17.3656C84.3495 15.9768 84.6223 14.7616 85.1679 13.72C85.7301 12.6784 86.4989 11.8765 87.4743 11.3144C88.4663 10.7523 89.5906 10.4712 90.8471 10.4712C92.269 10.4712 93.4759 10.8184 94.4679 11.5128C95.4599 12.2072 96.1543 13.0917 96.5511 14.1664V10.6448H97.6671V24.1112H96.5511V20.5648C96.1543 21.656 95.4517 22.5571 94.4431 23.268C93.4511 23.9624 92.2525 24.3096 90.8471 24.3096C89.5906 24.3096 88.4663 24.0285 87.4743 23.4664C86.4989 22.8877 85.7301 22.0776 85.1679 21.036C84.6223 19.9779 84.3495 18.7544 84.3495 17.3656ZM96.5511 17.3656C96.5511 16.1917 96.3031 15.1584 95.8071 14.2656C95.3277 13.3563 94.6663 12.6619 93.8231 12.1824C92.9799 11.6864 92.0375 11.4384 90.9959 11.4384C89.9047 11.4384 88.9458 11.6781 88.1191 12.1576C87.2925 12.6205 86.6477 13.2984 86.1847 14.1912C85.7218 15.084 85.4903 16.1421 85.4903 17.3656C85.4903 18.5891 85.7218 19.6472 86.1847 20.54C86.6477 21.4328 87.2925 22.1189 88.1191 22.5984C88.9623 23.0779 89.9213 23.3176 90.9959 23.3176C92.0375 23.3176 92.9799 23.0779 93.8231 22.5984C94.6829 22.1024 95.3525 21.408 95.8319 20.5152C96.3114 19.6059 96.5511 18.556 96.5511 17.3656Z" fill="white"/>
<path d="M111.75 10.6448L103.913 30.4352H102.772L105.277 24.1112L99.6227 10.6448H100.838L105.897 22.8712L110.609 10.6448H111.75Z" fill="white"/>
<path d="M8.1582 17.9474L2.03978 21.4798L2.03978 14.4149L8.1582 17.9474Z" fill="white"/>
</svg>
