<svg width="150" height="36" viewBox="0 0 150 36" fill="none" xmlns="http://www.w3.org/2000/svg">
<g clip-path="url(#clip0_4193_2710)">
<path d="M45.5356 24.706H56.0301V21.545H49.2656V9.63867H45.5356V24.706Z" fill="white"/>
<path d="M62.2481 22.5992C60.7519 22.5992 59.9722 21.2927 59.9722 19.3329C59.9722 17.3731 60.7519 16.0455 62.2481 16.0455C63.7443 16.0455 64.5451 17.3731 64.5451 19.3329C64.5451 21.2927 63.7443 22.5992 62.2481 22.5992ZM62.2692 25.0437C65.7462 25.0437 68.0221 22.5782 68.0221 19.3329C68.0221 16.0876 65.7462 13.6221 62.2692 13.6221C58.8132 13.6221 56.4951 16.0876 56.4951 19.3329C56.4951 22.5782 58.8132 25.0437 62.2692 25.0437Z" fill="white"/>
<path d="M74.0401 28.4371C75.6417 28.4371 77.0536 28.0788 78.0019 27.2359C78.8659 26.4562 79.4349 25.2761 79.4349 23.6535V13.9177H76.1475V15.0767H76.1053C75.4731 14.1705 74.5037 13.6016 73.0708 13.6016C70.3945 13.6016 68.54 15.8353 68.54 18.9963C68.54 22.3048 70.7949 24.1171 73.2183 24.1171C74.5248 24.1171 75.3467 23.5902 75.9789 22.8738H76.0632V23.9485C76.0632 25.255 75.452 26.0137 73.998 26.0137C72.86 26.0137 72.2911 25.529 72.1014 24.96H68.7718C69.109 27.2148 71.0688 28.4371 74.0401 28.4371ZM74.0191 21.5672C72.7336 21.5672 71.8907 20.5136 71.8907 18.8909C71.8907 17.2472 72.7336 16.1936 74.0191 16.1936C75.452 16.1936 76.2107 17.4158 76.2107 18.8699C76.2107 20.3871 75.5153 21.5672 74.0191 21.5672Z" fill="white"/>
<path d="M86.1944 22.5992C84.6982 22.5992 83.9185 21.2927 83.9185 19.3329C83.9185 17.3731 84.6982 16.0455 86.1944 16.0455C87.6906 16.0455 88.4914 17.3731 88.4914 19.3329C88.4914 21.2927 87.6906 22.5992 86.1944 22.5992ZM86.2155 25.0437C89.6925 25.0437 91.9684 22.5782 91.9684 19.3329C91.9684 16.0876 89.6925 13.6221 86.2155 13.6221C82.7595 13.6221 80.4414 16.0876 80.4414 19.3329C80.4414 22.5782 82.7595 25.0437 86.2155 25.0437Z" fill="white"/>
<path d="M92.9712 24.706H96.4061V13.9165H92.9712V24.706ZM92.9712 12.4203H96.4061V9.63867H92.9712V12.4203Z" fill="white"/>
<path d="M97.8975 28.2685H101.332V23.5902H101.375C102.049 24.4964 103.039 25.0443 104.43 25.0443C107.254 25.0443 109.129 22.8105 109.129 19.3124C109.129 16.0671 107.38 13.6016 104.514 13.6016C103.039 13.6016 101.986 14.2548 101.248 15.2242H101.185V13.9177H97.8975V28.2685ZM103.545 22.3891C102.07 22.3891 101.227 21.1879 101.227 19.4388C101.227 17.6898 101.986 16.3621 103.482 16.3621C104.957 16.3621 105.652 17.5844 105.652 19.4388C105.652 21.2722 104.852 22.3891 103.545 22.3891Z" fill="white"/>
<path d="M114.722 25.0443C117.546 25.0443 119.632 23.822 119.632 21.4619C119.632 18.7013 117.398 18.2166 115.502 17.9005C114.132 17.6476 112.91 17.5422 112.91 16.7836C112.91 16.1093 113.563 15.7932 114.406 15.7932C115.354 15.7932 116.007 16.0882 116.134 17.0576H119.295C119.126 14.9292 117.482 13.6016 114.427 13.6016C111.877 13.6016 109.77 14.7817 109.77 17.0576C109.77 19.5863 111.772 20.0921 113.647 20.4082C115.08 20.6611 116.387 20.7664 116.387 21.7358C116.387 22.4312 115.733 22.8105 114.701 22.8105C113.563 22.8105 112.846 22.2837 112.72 21.209H109.475C109.58 23.5902 111.561 25.0443 114.722 25.0443Z" fill="white"/>
<path d="M124.298 25.0226C125.794 25.0226 126.742 24.4325 127.522 23.3788H127.585V24.7065H130.872V13.917H127.437V19.9439C127.437 21.2294 126.721 22.1145 125.541 22.1145C124.445 22.1145 123.918 21.4612 123.918 20.2811V13.917H120.504V20.9976C120.504 23.3999 121.811 25.0226 124.298 25.0226Z" fill="white"/>
<path d="M132.366 24.7071H135.801V18.6591C135.801 17.3737 136.433 16.4675 137.508 16.4675C138.541 16.4675 139.025 17.1419 139.025 18.3009V24.7071H142.46V18.6591C142.46 17.3737 143.071 16.4675 144.167 16.4675C145.2 16.4675 145.684 17.1419 145.684 18.3009V24.7071H149.119V17.6898C149.119 15.2663 147.897 13.6016 145.453 13.6016C144.062 13.6016 142.903 14.1916 142.06 15.4981H142.018C141.47 14.3391 140.395 13.6016 138.983 13.6016C137.424 13.6016 136.391 14.3391 135.717 15.456H135.654V13.9177H132.366V24.7071Z" fill="white"/>
<path fill-rule="evenodd" clip-rule="evenodd" d="M18.1616 35.243C27.8602 35.243 35.7226 27.3807 35.7226 17.682C35.7226 7.98341 27.8602 0.121094 18.1616 0.121094C8.46289 0.121094 0.600586 7.98341 0.600586 17.682C0.600586 27.3807 8.46289 35.243 18.1616 35.243ZM23.64 8.30173C23.9067 7.3545 22.9874 6.79438 22.1479 7.39248L10.4287 15.7412C9.51824 16.3898 9.66145 17.682 10.6438 17.682H13.7298V17.6582H19.7443L14.8436 19.3873L12.6832 27.0624C12.4165 28.0097 13.3356 28.5698 14.1752 27.9716L25.8945 19.623C26.8049 18.9744 26.6616 17.682 25.6793 17.682H20.9995L23.64 8.30173Z" fill="white"/>
</g>
<defs>
<clipPath id="clip0_4193_2710">
<rect width="149.268" height="36" fill="white"/>
</clipPath>
</defs>
</svg>
