<svg width="148" height="36" viewBox="0 0 148 36" fill="none" xmlns="http://www.w3.org/2000/svg">
<path d="M43.2676 25.4208H53.762V22.2599H46.9975V10.3535H43.2676V25.4208Z" fill="white"/>
<path d="M59.98 23.3141C58.4838 23.3141 57.7041 22.0075 57.7041 20.0477C57.7041 18.0879 58.4838 16.7603 59.98 16.7603C61.4762 16.7603 62.277 18.0879 62.277 20.0477C62.277 22.0075 61.4762 23.3141 59.98 23.3141ZM60.0011 25.7586C63.4782 25.7586 65.7541 23.293 65.7541 20.0477C65.7541 16.8025 63.4782 14.3369 60.0011 14.3369C56.5451 14.3369 54.2271 16.8025 54.2271 20.0477C54.2271 23.293 56.5451 25.7586 60.0011 25.7586Z" fill="white"/>
<path d="M71.7726 29.1519C73.3741 29.1519 74.786 28.7937 75.7343 27.9507C76.5983 27.171 77.1673 25.9909 77.1673 24.3683V14.6325H73.8799V15.7915H73.8377C73.2055 14.8854 72.2362 14.3164 70.8032 14.3164C68.1269 14.3164 66.2725 16.5502 66.2725 19.7111C66.2725 23.0196 68.5273 24.8319 70.9507 24.8319C72.2572 24.8319 73.0791 24.3051 73.7113 23.5886H73.7956V24.6633C73.7956 25.9699 73.1845 26.7285 71.7304 26.7285C70.5925 26.7285 70.0235 26.2438 69.8338 25.6748H66.5043C66.8414 27.9297 68.8012 29.1519 71.7726 29.1519ZM71.7515 22.2821C70.466 22.2821 69.6231 21.2284 69.6231 19.6058C69.6231 17.9621 70.466 16.9084 71.7515 16.9084C73.1845 16.9084 73.9431 18.1307 73.9431 19.5847C73.9431 21.102 73.2477 22.2821 71.7515 22.2821Z" fill="white"/>
<path d="M83.9268 23.3141C82.4306 23.3141 81.6509 22.0075 81.6509 20.0477C81.6509 18.0879 82.4306 16.7603 83.9268 16.7603C85.423 16.7603 86.2238 18.0879 86.2238 20.0477C86.2238 22.0075 85.423 23.3141 83.9268 23.3141ZM83.9479 25.7586C87.4249 25.7586 89.7004 23.293 89.7004 20.0477C89.7004 16.8025 87.4249 14.3369 83.9479 14.3369C80.4919 14.3369 78.1738 16.8025 78.1738 20.0477C78.1738 23.293 80.4919 25.7586 83.9479 25.7586Z" fill="white"/>
<path d="M90.7036 25.4208H94.1385V14.6314H90.7036V25.4208ZM90.7036 13.1352H94.1385V10.3535H90.7036V13.1352Z" fill="white"/>
<path d="M95.6289 28.9833H99.0638V24.3051H99.106C99.7803 25.2112 100.771 25.7591 102.162 25.7591C104.985 25.7591 106.861 23.5254 106.861 20.0272C106.861 16.782 105.112 14.3164 102.246 14.3164C100.771 14.3164 99.7171 14.9697 98.9795 15.939H98.9163V14.6325H95.6289V28.9833ZM101.277 23.1039C99.8014 23.1039 98.9585 21.9027 98.9585 20.1537C98.9585 18.4046 99.7171 17.077 101.213 17.077C102.688 17.077 103.384 18.2992 103.384 20.1537C103.384 21.987 102.583 23.1039 101.277 23.1039Z" fill="white"/>
<path d="M112.453 25.7591C115.277 25.7591 117.363 24.5369 117.363 22.1767C117.363 19.4161 115.13 18.9314 113.233 18.6153C111.863 18.3625 110.641 18.2571 110.641 17.4985C110.641 16.8241 111.294 16.508 112.137 16.508C113.085 16.508 113.739 16.803 113.865 17.7724H117.026C116.858 15.644 115.214 14.3164 112.158 14.3164C109.608 14.3164 107.501 15.4965 107.501 17.7724C107.501 20.3012 109.503 20.8069 111.379 21.123C112.812 21.3759 114.118 21.4813 114.118 22.4506C114.118 23.1461 113.465 23.5254 112.432 23.5254C111.294 23.5254 110.578 22.9986 110.451 21.9238H107.206C107.311 24.3051 109.292 25.7591 112.453 25.7591Z" fill="white"/>
<path d="M122.029 25.7374C123.526 25.7374 124.474 25.1473 125.254 24.0937H125.317V25.4213H128.604V14.6318H125.169V20.6588C125.169 21.9442 124.453 22.8293 123.273 22.8293C122.177 22.8293 121.65 22.176 121.65 20.9959V14.6318H118.236V21.7124C118.236 24.1148 119.543 25.7374 122.029 25.7374Z" fill="white"/>
<path d="M130.099 25.422H133.534V19.374C133.534 18.0885 134.166 17.1824 135.24 17.1824C136.273 17.1824 136.758 17.8567 136.758 19.0157V25.422H140.193V19.374C140.193 18.0885 140.804 17.1824 141.9 17.1824C142.932 17.1824 143.417 17.8567 143.417 19.0157V25.422H146.852V18.4046C146.852 15.9812 145.63 14.3164 143.185 14.3164C141.794 14.3164 140.635 14.9065 139.792 16.213H139.75C139.202 15.054 138.128 14.3164 136.716 14.3164C135.156 14.3164 134.124 15.054 133.449 16.1708H133.386V14.6325H130.099V25.422Z" fill="white"/>
<path d="M22.3108 1.73589L18.8574 0.810547L15.9472 11.6716L13.3198 1.86617L9.86636 2.79151L12.7051 13.3856L5.63449 6.31502L3.10642 8.84309L10.862 16.5987L1.20366 14.0108L0.27832 17.4641L10.8313 20.2918C10.7104 19.7707 10.6465 19.2277 10.6465 18.6698C10.6465 14.7207 13.8479 11.5193 17.797 11.5193C21.7461 11.5193 24.9475 14.7207 24.9475 18.6698C24.9475 19.2241 24.8843 19.7637 24.765 20.2818L34.3557 22.8516L35.281 19.3982L24.6861 16.5593L34.345 13.9712L33.4197 10.5178L22.8252 13.3565L29.8958 6.28599L27.3677 3.75792L19.7197 11.4059L22.3108 1.73589Z" fill="white"/>
<path d="M24.7559 20.3223C24.4598 21.574 23.8347 22.6985 22.9771 23.5995L29.9251 30.5476L32.4531 28.0195L24.7559 20.3223Z" fill="white"/>
<path d="M22.907 23.6719C22.039 24.5584 20.9421 25.22 19.7119 25.561L22.2402 34.9965L25.6935 34.0711L22.907 23.6719Z" fill="white"/>
<path d="M19.5825 25.595C19.0118 25.7417 18.4136 25.8197 17.7971 25.8197C17.1367 25.8197 16.4971 25.7301 15.8899 25.5625L13.3594 35.0066L16.8127 35.9319L19.5825 25.595Z" fill="white"/>
<path d="M15.7678 25.5284C14.5564 25.1705 13.479 24.5004 12.6287 23.6113L5.66357 30.5764L8.19164 33.1045L15.7678 25.5284Z" fill="white"/>
<path d="M12.5706 23.5492C11.7348 22.6544 11.1261 21.5449 10.8363 20.3125L1.21436 22.8907L2.13969 26.3441L12.5706 23.5492Z" fill="white"/>
</svg>
