<svg width="155" height="36" viewBox="0 0 155 36" fill="none" xmlns="http://www.w3.org/2000/svg">
<path d="M18.375 9.5625C18.375 14.2224 14.5974 18 9.9375 18H1.5V9.5625C1.5 4.90259 5.27759 1.125 9.9375 1.125C14.5974 1.125 18.375 4.90259 18.375 9.5625Z" fill="white"/>
<path d="M18.375 26.4375C18.375 21.7776 22.1526 18 26.8125 18H35.25V26.4375C35.25 31.0974 31.4724 34.875 26.8125 34.875C22.1526 34.875 18.375 31.0974 18.375 26.4375Z" fill="white"/>
<path d="M1.5 26.4375C1.5 31.0974 5.27759 34.875 9.9375 34.875H18.375V26.4375C18.375 21.7776 14.5974 18 9.9375 18C5.27759 18 1.5 21.7776 1.5 26.4375Z" fill="white"/>
<path d="M35.25 9.5625C35.25 4.90259 31.4724 1.125 26.8125 1.125H18.375V9.5625C18.375 14.2224 22.1526 18 26.8125 18C31.4724 18 35.25 14.2224 35.25 9.5625Z" fill="white"/>
<path d="M44.7329 26.1H54.9503V23.1906H47.8485V9.60547H44.7329V26.1Z" fill="white"/>
<path d="M61.0901 26.4439C62.3273 26.4439 63.4155 26.169 64.3547 25.6192C65.3016 25.0617 66.0385 24.2943 66.5655 23.3169C67.1 22.3317 67.3673 21.1977 67.3673 19.9149C67.3673 18.6396 67.1037 17.5132 66.5769 16.5357C66.0499 15.5507 65.313 14.7794 64.3661 14.2219C63.4269 13.6645 62.3349 13.3857 61.0901 13.3857C59.8683 13.3857 58.7877 13.6607 57.8485 14.2105C56.9093 14.7603 56.1723 15.5277 55.6377 16.5129C55.1032 17.4903 54.8359 18.6243 54.8359 19.9149C54.8359 21.1901 55.0956 22.3203 55.6149 23.3054C56.1417 24.2829 56.8749 25.0503 57.8141 25.6077C58.7535 26.1652 59.8454 26.4439 61.0901 26.4439ZM61.0901 23.5345C60.1203 23.5345 59.3835 23.21 58.8795 22.5609C58.383 21.9042 58.1349 21.0222 58.1349 19.9149C58.1349 18.8381 58.3716 17.9676 58.8451 17.3032C59.3261 16.6312 60.0745 16.2952 61.0901 16.2952C62.0753 16.2952 62.816 16.6236 63.3123 17.2803C63.8163 17.937 64.0683 18.8152 64.0683 19.9149C64.0683 20.9763 63.8202 21.8468 63.3237 22.5265C62.835 23.1984 62.0905 23.5345 61.0901 23.5345Z" fill="white"/>
<path d="M73.5285 26.4439C74.1089 26.4439 74.6434 26.3752 75.1322 26.2377C75.6286 26.1003 76.0791 25.9056 76.4838 25.6536V26.9021C76.4991 27.3603 76.3807 27.7421 76.1287 28.0476C75.8843 28.3607 75.556 28.5936 75.1436 28.7463C74.7313 28.9067 74.2922 28.9869 73.8264 28.9869C73.3911 28.9869 72.9863 28.8914 72.6122 28.7005C72.2456 28.5096 71.963 28.2309 71.7645 27.8643L68.878 29.2617C69.3514 30.0636 70.0272 30.7089 70.9055 31.1976C71.7837 31.6939 72.7496 31.9421 73.8035 31.9421C74.7122 31.9421 75.556 31.8199 76.3349 31.5756C77.1138 31.3389 77.7706 30.9762 78.3051 30.4874C78.8472 29.9987 79.2177 29.3763 79.4162 28.6203C79.4849 28.353 79.5307 28.0819 79.5536 27.807C79.5842 27.5398 79.5995 27.2534 79.5995 26.9479V13.7294H76.8733V14.4167C76.4532 14.0883 75.976 13.8363 75.4415 13.6607C74.9145 13.4774 74.3304 13.3857 73.6889 13.3857C72.5053 13.3857 71.4744 13.6683 70.5962 14.2334C69.718 14.7985 69.0345 15.5736 68.5458 16.5587C68.0647 17.5361 67.8242 18.6549 67.8242 19.9149C67.8242 21.1519 68.0609 22.263 68.5344 23.2481C69.0155 24.2332 69.6836 25.0121 70.5389 25.5849C71.3942 26.1576 72.3907 26.4439 73.5285 26.4439ZM74.0325 23.6719C73.3606 23.6719 72.8108 23.5039 72.3831 23.1679C71.9555 22.832 71.6385 22.3814 71.4324 21.8163C71.2262 21.2436 71.1231 20.6098 71.1231 19.9149C71.1231 19.2276 71.23 18.6014 71.4438 18.0363C71.6577 17.4636 71.986 17.0092 72.4289 16.6732C72.8794 16.3296 73.4522 16.1577 74.1471 16.1577C75.1246 16.1577 75.8232 16.5052 76.2433 17.2001C76.6633 17.8874 76.8733 18.7923 76.8733 19.9149C76.8733 21.0374 76.6594 21.9461 76.2318 22.641C75.8118 23.3283 75.0788 23.6719 74.0325 23.6719Z" fill="white"/>
<path d="M86.9998 26.4439C88.2369 26.4439 89.3251 26.169 90.2644 25.6192C91.2111 25.0617 91.9482 24.2943 92.4747 23.3169C93.0093 22.3317 93.2766 21.1977 93.2766 19.9149C93.2766 18.6396 93.0138 17.5132 92.4864 16.5357C91.9599 15.5507 91.2228 14.7794 90.2758 14.2219C89.3366 13.6645 88.2445 13.3857 86.9998 13.3857C85.778 13.3857 84.6974 13.6607 83.7582 14.2105C82.8189 14.7603 82.082 15.5277 81.5474 16.5129C81.0129 17.4903 80.7456 18.6243 80.7456 19.9149C80.7456 21.1901 81.0053 22.3203 81.5246 23.3054C82.0514 24.2829 82.7846 25.0503 83.7238 25.6077C84.6631 26.1652 85.7551 26.4439 86.9998 26.4439ZM86.9998 23.5345C86.03 23.5345 85.293 23.21 84.789 22.5609C84.2927 21.9042 84.0446 21.0222 84.0446 19.9149C84.0446 18.8381 84.2813 17.9676 84.7547 17.3032C85.2358 16.6312 85.9841 16.2952 86.9998 16.2952C87.9849 16.2952 88.7256 16.6236 89.222 17.2803C89.726 17.937 89.978 18.8152 89.978 19.9149C89.978 20.9763 89.7298 21.8468 89.2334 22.5265C88.7447 23.1984 88.0001 23.5345 86.9998 23.5345Z" fill="white"/>
<path d="M94.6499 12.0108H97.7657V9.26172H94.6499V12.0108ZM94.6499 26.0999H97.7657V13.729H94.6499V26.0999Z" fill="white"/>
<path d="M99.8027 31.5985H102.941V25.6536C103.346 25.9056 103.792 26.1003 104.281 26.2377C104.778 26.3752 105.316 26.4439 105.897 26.4439C107.034 26.4439 108.031 26.1576 108.886 25.5849C109.741 25.0121 110.406 24.2332 110.879 23.2481C111.361 22.263 111.601 21.1519 111.601 19.9149C111.601 18.6549 111.357 17.5361 110.868 16.5587C110.387 15.5736 109.707 14.7985 108.829 14.2334C107.95 13.6683 106.92 13.3857 105.736 13.3857C105.095 13.3857 104.507 13.4774 103.972 13.6607C103.445 13.8363 102.972 14.0883 102.552 14.4167V13.7294H99.8027V31.5985ZM105.393 23.6719C104.354 23.6719 103.621 23.3283 103.193 22.641C102.766 21.9461 102.552 21.0374 102.552 19.9149C102.552 18.7923 102.762 17.8874 103.182 17.2001C103.61 16.5052 104.308 16.1577 105.278 16.1577C105.973 16.1577 106.542 16.3296 106.985 16.6732C107.436 17.0092 107.768 17.4636 107.981 18.0363C108.195 18.6014 108.302 19.2276 108.302 19.9149C108.302 20.6098 108.199 21.2436 107.993 21.8163C107.787 22.3814 107.47 22.832 107.042 23.1679C106.615 23.5039 106.065 23.6719 105.393 23.6719Z" fill="white"/>
<path d="M117.246 26.4439C118.864 26.4439 120.132 26.0812 121.048 25.3557C121.964 24.6303 122.422 23.6338 122.422 22.3661C122.422 21.4039 122.125 20.6442 121.53 20.0867C120.941 19.5292 119.941 19.0672 118.528 18.7007C117.566 18.4563 116.848 18.2577 116.374 18.105C115.909 17.9523 115.6 17.8034 115.447 17.6583C115.302 17.5132 115.23 17.3338 115.23 17.1199C115.23 16.761 115.401 16.4862 115.744 16.2952C116.096 16.1043 116.558 16.028 117.13 16.0661C118.345 16.1577 119.01 16.677 119.124 17.6239L122.308 17.0512C122.148 15.9287 121.598 15.039 120.658 14.3823C119.72 13.7179 118.521 13.3857 117.062 13.3857C115.565 13.3857 114.37 13.737 113.476 14.4396C112.584 15.1421 112.136 16.089 112.136 17.2803C112.136 18.2272 112.446 18.9756 113.064 19.5254C113.683 20.0676 114.748 20.5334 116.26 20.9229C117.154 21.1596 117.81 21.3505 118.23 21.4956C118.658 21.6406 118.933 21.7896 119.055 21.9423C119.177 22.0874 119.238 22.2822 119.238 22.5265C119.238 22.9159 119.085 23.2214 118.78 23.4429C118.475 23.6566 118.039 23.7636 117.474 23.7636C116.787 23.7636 116.218 23.5994 115.768 23.271C115.325 22.9427 115.038 22.4883 114.908 21.9079L111.724 22.389C111.93 23.6796 112.511 24.6799 113.466 25.3901C114.428 26.0927 115.688 26.4439 117.246 26.4439Z" fill="white"/>
<path d="M128.17 26.467C129.064 26.467 129.842 26.3181 130.507 26.0203C131.171 25.7224 131.728 25.3254 132.179 24.829V26.1004H134.928V13.7295H131.79V20.0066C131.79 20.7703 131.701 21.3888 131.526 21.8623C131.359 22.3281 131.141 22.6831 130.873 22.9275C130.606 23.1643 130.32 23.3246 130.014 23.4086C129.709 23.4926 129.423 23.5346 129.155 23.5346C128.491 23.5346 127.975 23.3857 127.609 23.0879C127.25 22.7901 126.99 22.4197 126.83 21.9768C126.67 21.5338 126.574 21.0948 126.544 20.6595C126.513 20.2166 126.498 19.8539 126.498 19.5713V13.7295H123.336V20.671C123.336 20.8771 123.351 21.2055 123.382 21.6561C123.412 22.1066 123.501 22.6068 123.646 23.1566C123.79 23.6988 124.031 24.2219 124.367 24.7259C124.711 25.2299 125.188 25.646 125.799 25.9744C126.409 26.3028 127.201 26.467 128.17 26.467Z" fill="white"/>
<path d="M136.732 26.1004H139.87V18.6091C139.87 17.899 140.065 17.3224 140.454 16.8795C140.851 16.4289 141.374 16.2036 142.024 16.2036C142.703 16.2036 143.234 16.4328 143.616 16.891C144.005 17.3415 144.2 17.9753 144.2 18.7924V26.1004H147.316V18.6091C147.316 17.899 147.51 17.3224 147.9 16.8795C148.297 16.4289 148.82 16.2036 149.469 16.2036C150.149 16.2036 150.679 16.4328 151.061 16.891C151.451 17.3415 151.646 17.9753 151.646 18.7924V26.1004H154.761V17.9676C154.761 16.616 154.398 15.5241 153.673 14.6916C152.955 13.8517 151.89 13.4316 150.477 13.4316C149.683 13.4316 148.954 13.6035 148.289 13.9471C147.625 14.2908 147.095 14.7604 146.697 15.356C146.376 14.7757 145.918 14.3099 145.322 13.9586C144.727 13.6073 143.986 13.4316 143.1 13.4316C142.352 13.4316 141.665 13.5806 141.038 13.8784C140.412 14.1686 139.893 14.5695 139.481 15.0811V13.7295H136.732V26.1004Z" fill="white"/>
</svg>
