<svg width="155" height="36" viewBox="0 0 155 36" fill="none" xmlns="http://www.w3.org/2000/svg">
<g clip-path="url(#clip0_4193_2764)">
<path d="M44.1328 26.1H54.3502V23.1906H47.2484V9.60547H44.1328V26.1Z" fill="white"/>
<path d="M60.49 26.4439C61.7272 26.4439 62.8154 26.169 63.7546 25.6192C64.7015 25.0617 65.4384 24.2943 65.9654 23.3169C66.4999 22.3317 66.7672 21.1977 66.7672 19.9149C66.7672 18.6396 66.5037 17.5132 65.9768 16.5357C65.4498 15.5507 64.7129 14.7794 63.766 14.2219C62.8268 13.6645 61.7348 13.3857 60.49 13.3857C59.2682 13.3857 58.1877 13.6607 57.2484 14.2105C56.3092 14.7603 55.5722 15.5277 55.0376 16.5129C54.5031 17.4903 54.2358 18.6243 54.2358 19.9149C54.2358 21.1901 54.4955 22.3203 55.0148 23.3054C55.5417 24.2829 56.2748 25.0503 57.214 25.6077C58.1534 26.1652 59.2453 26.4439 60.49 26.4439ZM60.49 23.5345C59.5202 23.5345 58.7834 23.21 58.2794 22.5609C57.7829 21.9042 57.5348 21.0222 57.5348 19.9149C57.5348 18.8381 57.7715 17.9676 58.245 17.3032C58.726 16.6312 59.4744 16.2952 60.49 16.2952C61.4752 16.2952 62.2159 16.6236 62.7122 17.2803C63.2162 17.937 63.4682 18.8152 63.4682 19.9149C63.4682 20.9763 63.2201 21.8468 62.7237 22.5265C62.235 23.1984 61.4904 23.5345 60.49 23.5345Z" fill="white"/>
<path d="M72.9289 26.4439C73.5093 26.4439 74.0438 26.3752 74.5326 26.2377C75.029 26.1003 75.4795 25.9056 75.8842 25.6536V26.9021C75.8995 27.3603 75.7811 27.7421 75.5291 28.0476C75.2847 28.3607 74.9564 28.5936 74.544 28.7463C74.1317 28.9067 73.6925 28.9869 73.2268 28.9869C72.7915 28.9869 72.3867 28.8914 72.0126 28.7005C71.646 28.5096 71.3634 28.2309 71.1649 27.8643L68.2784 29.2617C68.7518 30.0636 69.4276 30.7089 70.3058 31.1976C71.1841 31.6939 72.15 31.9421 73.2039 31.9421C74.1126 31.9421 74.9564 31.8199 75.7353 31.5756C76.5142 31.3389 77.171 30.9762 77.7055 30.4874C78.2476 29.9987 78.6181 29.3763 78.8166 28.6203C78.8853 28.353 78.9311 28.0819 78.954 27.807C78.9845 27.5398 78.9998 27.2534 78.9998 26.9479V13.7294H76.2737V14.4167C75.8536 14.0883 75.3764 13.8363 74.8418 13.6607C74.3149 13.4774 73.7308 13.3857 73.0893 13.3857C71.9057 13.3857 70.8747 13.6683 69.9966 14.2334C69.1184 14.7985 68.4349 15.5736 67.9462 16.5587C67.4651 17.5361 67.2246 18.6549 67.2246 19.9149C67.2246 21.1519 67.4613 22.263 67.9348 23.2481C68.4159 24.2332 69.084 25.0121 69.9393 25.5849C70.7945 26.1576 71.7911 26.4439 72.9289 26.4439ZM73.4329 23.6719C72.761 23.6719 72.2111 23.5039 71.7835 23.1679C71.3559 22.832 71.0389 22.3814 70.8328 21.8163C70.6266 21.2436 70.5235 20.6098 70.5235 19.9149C70.5235 19.2276 70.6304 18.6014 70.8442 18.0363C71.0581 17.4636 71.3864 17.0092 71.8293 16.6732C72.2798 16.3296 72.8526 16.1577 73.5475 16.1577C74.525 16.1577 75.2236 16.5052 75.6437 17.2001C76.0637 17.8874 76.2737 18.7923 76.2737 19.9149C76.2737 21.0374 76.0598 21.9461 75.6322 22.641C75.2122 23.3283 74.4792 23.6719 73.4329 23.6719Z" fill="white"/>
<path d="M86.3997 26.4439C87.6368 26.4439 88.725 26.169 89.6643 25.6192C90.611 25.0617 91.3481 24.2943 91.8746 23.3169C92.4092 22.3317 92.6765 21.1977 92.6765 19.9149C92.6765 18.6396 92.4137 17.5132 91.8863 16.5357C91.3598 15.5507 90.6227 14.7794 89.6757 14.2219C88.7365 13.6645 87.6444 13.3857 86.3997 13.3857C85.1779 13.3857 84.0973 13.6607 83.1581 14.2105C82.2188 14.7603 81.4819 15.5277 80.9473 16.5129C80.4128 17.4903 80.1455 18.6243 80.1455 19.9149C80.1455 21.1901 80.4052 22.3203 80.9245 23.3054C81.4513 24.2829 82.1845 25.0503 83.1237 25.6077C84.063 26.1652 85.155 26.4439 86.3997 26.4439ZM86.3997 23.5345C85.4299 23.5345 84.6929 23.21 84.1889 22.5609C83.6926 21.9042 83.4445 21.0222 83.4445 19.9149C83.4445 18.8381 83.6812 17.9676 84.1547 17.3032C84.6357 16.6312 85.3841 16.2952 86.3997 16.2952C87.3848 16.2952 88.1255 16.6236 88.6219 17.2803C89.1259 17.937 89.3779 18.8152 89.3779 19.9149C89.3779 20.9763 89.1297 21.8468 88.6333 22.5265C88.1446 23.1984 87.4001 23.5345 86.3997 23.5345Z" fill="white"/>
<path d="M94.0498 12.0108H97.1656V9.26172H94.0498V12.0108ZM94.0498 26.0999H97.1656V13.729H94.0498V26.0999Z" fill="white"/>
<path d="M99.2026 31.5985H102.341V25.6536C102.746 25.9056 103.192 26.1003 103.681 26.2377C104.178 26.3752 104.716 26.4439 105.297 26.4439C106.434 26.4439 107.431 26.1576 108.286 25.5849C109.141 25.0121 109.806 24.2332 110.279 23.2481C110.76 22.263 111.001 21.1519 111.001 19.9149C111.001 18.6549 110.757 17.5361 110.268 16.5587C109.787 15.5736 109.107 14.7985 108.229 14.2334C107.35 13.6683 106.32 13.3857 105.136 13.3857C104.495 13.3857 103.907 13.4774 103.372 13.6607C102.845 13.8363 102.372 14.0883 101.952 14.4167V13.7294H99.2026V31.5985ZM104.793 23.6719C103.754 23.6719 103.021 23.3283 102.593 22.641C102.165 21.9461 101.952 21.0374 101.952 19.9149C101.952 18.7923 102.162 17.8874 102.582 17.2001C103.01 16.5052 103.708 16.1577 104.678 16.1577C105.373 16.1577 105.942 16.3296 106.385 16.6732C106.836 17.0092 107.168 17.4636 107.381 18.0363C107.595 18.6014 107.702 19.2276 107.702 19.9149C107.702 20.6098 107.599 21.2436 107.393 21.8163C107.187 22.3814 106.87 22.832 106.442 23.1679C106.015 23.5039 105.465 23.6719 104.793 23.6719Z" fill="white"/>
<path d="M116.646 26.4439C118.264 26.4439 119.532 26.0812 120.448 25.3557C121.364 24.6303 121.822 23.6338 121.822 22.3661C121.822 21.4039 121.524 20.6442 120.93 20.0867C120.341 19.5292 119.341 19.0672 117.928 18.7007C116.966 18.4563 116.248 18.2577 115.774 18.105C115.309 17.9523 114.999 17.8034 114.846 17.6583C114.702 17.5132 114.63 17.3338 114.63 17.1199C114.63 16.761 114.801 16.4862 115.144 16.2952C115.496 16.1043 115.958 16.028 116.53 16.0661C117.744 16.1577 118.41 16.677 118.524 17.6239L121.708 17.0512C121.548 15.9287 120.998 15.039 120.058 14.3823C119.12 13.7179 117.921 13.3857 116.462 13.3857C114.965 13.3857 113.77 13.737 112.876 14.4396C111.984 15.1421 111.536 16.089 111.536 17.2803C111.536 18.2272 111.846 18.9756 112.464 19.5254C113.082 20.0676 114.148 20.5334 115.66 20.9229C116.554 21.1596 117.21 21.3505 117.63 21.4956C118.058 21.6406 118.333 21.7896 118.455 21.9423C118.577 22.0874 118.638 22.2822 118.638 22.5265C118.638 22.9159 118.485 23.2214 118.18 23.4429C117.875 23.6566 117.439 23.7636 116.874 23.7636C116.187 23.7636 115.618 23.5994 115.168 23.271C114.725 22.9427 114.438 22.4883 114.308 21.9079L111.124 22.389C111.33 23.6796 111.911 24.6799 112.866 25.3901C113.828 26.0927 115.088 26.4439 116.646 26.4439Z" fill="white"/>
<path d="M127.57 26.467C128.463 26.467 129.242 26.3181 129.907 26.0203C130.571 25.7224 131.128 25.3254 131.579 24.829V26.1004H134.328V13.7295H131.19V20.0066C131.19 20.7703 131.101 21.3888 130.926 21.8623C130.758 22.3281 130.541 22.6831 130.273 22.9275C130.006 23.1643 129.72 23.3246 129.414 23.4086C129.109 23.4926 128.823 23.5346 128.555 23.5346C127.891 23.5346 127.375 23.3857 127.009 23.0879C126.65 22.7901 126.39 22.4197 126.23 21.9768C126.069 21.5338 125.974 21.0948 125.943 20.6595C125.913 20.2166 125.898 19.8539 125.898 19.5713V13.7295H122.736V20.671C122.736 20.8771 122.751 21.2055 122.782 21.6561C122.812 22.1066 122.901 22.6068 123.045 23.1566C123.19 23.6988 123.431 24.2219 123.767 24.7259C124.111 25.2299 124.588 25.646 125.199 25.9744C125.809 26.3028 126.6 26.467 127.57 26.467Z" fill="white"/>
<path d="M136.132 26.1004H139.27V18.6091C139.27 17.899 139.465 17.3224 139.854 16.8795C140.251 16.4289 140.774 16.2036 141.424 16.2036C142.103 16.2036 142.634 16.4328 143.016 16.891C143.405 17.3415 143.6 17.9753 143.6 18.7924V26.1004H146.716V18.6091C146.716 17.899 146.91 17.3224 147.3 16.8795C147.697 16.4289 148.22 16.2036 148.869 16.2036C149.549 16.2036 150.079 16.4328 150.461 16.891C150.85 17.3415 151.046 17.9753 151.046 18.7924V26.1004H154.161V17.9676C154.161 16.616 153.798 15.5241 153.073 14.6916C152.355 13.8517 151.29 13.4316 149.877 13.4316C149.083 13.4316 148.354 13.6035 147.689 13.9471C147.025 14.2908 146.494 14.7604 146.097 15.356C145.776 14.7757 145.318 14.3099 144.722 13.9586C144.127 13.6073 143.386 13.4316 142.5 13.4316C141.751 13.4316 141.065 13.5806 140.438 13.8784C139.812 14.1686 139.293 14.5695 138.88 15.0811V13.7295H136.132V26.1004Z" fill="white"/>
<path d="M18 0C8.05887 0 0 8.05887 0 18C9.94113 18 18 9.94113 18 0Z" fill="white"/>
<path d="M18 36C27.9411 36 36 27.9411 36 18C26.0589 18 18 26.0589 18 36Z" fill="white"/>
<path d="M18 0C27.9411 0 36 8.05887 36 18C26.0589 18 18 9.94113 18 0Z" fill="white"/>
<path d="M18 36C8.05887 36 -8.6908e-07 27.9411 0 18C9.94113 18 18 26.0589 18 36Z" fill="white"/>
</g>
<defs>
<clipPath id="clip0_4193_2764">
<rect width="154.8" height="36" fill="white"/>
</clipPath>
</defs>
</svg>
