<svg width="103" height="25" viewBox="0 0 103 25" fill="none" xmlns="http://www.w3.org/2000/svg">
<path d="M8.06072 10.3181C11.203 8.81522 13.6622 6.26494 15.074 3.07709C14.1632 2.12073 12.9791 1.43762 11.704 1.02775L11.0209 0.800049C10.9753 0.89113 10.9298 1.02776 10.9298 1.11884C9.83681 4.21561 7.60531 6.72035 4.59962 8.13212C2.50475 9.13402 0.956357 10.9556 0.227704 13.1416L0 13.8247C0.0910816 13.8703 0.227706 13.9158 0.318788 13.9158C1.18406 14.2346 2.04934 14.6444 2.86907 15.1454C4.00759 13.0961 5.82922 11.3655 8.06072 10.3181Z" fill="white"/>
<path d="M21.2674 10.5002C19.5824 13.0505 17.2598 15.0999 14.3907 16.4661C12.0682 17.5591 10.2921 19.6084 9.47233 22.0676L9.24463 22.8418C10.1099 23.616 11.1573 24.208 12.2959 24.5724L12.979 24.8001C13.0245 24.709 13.0701 24.5724 13.0701 24.4813C14.163 21.3845 16.3945 18.8798 19.4002 17.468C21.4951 16.4661 23.089 14.6445 23.7721 12.4585L23.9998 11.7754C23.0435 11.5021 22.1327 11.0467 21.2674 10.5002Z" fill="white"/>
<path d="M7.42333 20.4737C8.56185 17.7412 10.6567 15.5097 13.3436 14.2346C15.8028 13.0505 17.8522 11.2289 19.2639 8.99737C18.2165 7.99547 17.3512 6.85695 16.7136 5.49072C15.0286 8.5875 12.3873 11.0922 9.15388 12.6406C7.28671 13.5059 5.78386 15.0088 4.87305 16.8304C5.87494 17.7867 6.69468 18.9708 7.33225 20.2915C7.33225 20.2915 7.37779 20.3826 7.42333 20.4737Z" fill="white"/>
<path d="M93.0845 24.5735C92.8188 24.5735 92.5571 24.5618 92.2993 24.5383C92.0415 24.5149 91.8267 24.4875 91.6548 24.4563V22.2297C91.7642 22.2532 91.9009 22.2727 92.0649 22.2883C92.229 22.3118 92.4087 22.3235 92.604 22.3235C93.1743 22.3235 93.6274 22.2219 93.9634 22.0188C94.2993 21.8157 94.5571 21.4485 94.7368 20.9172L94.9126 20.3899L90.4243 7.88599H93.6001L96.7407 18.5735L96.2368 17.8352H96.9282L96.4243 18.5735L99.5649 7.88599H102.635L98.1353 20.7766C97.8149 21.7141 97.4282 22.4602 96.9751 23.0149C96.522 23.5696 95.979 23.968 95.3462 24.2102C94.7134 24.4524 93.9595 24.5735 93.0845 24.5735Z" fill="white"/>
<path d="M84.459 20.3782V10.136H82.6895V7.88599H84.459V6.67896C84.459 5.46021 84.7676 4.55786 85.3848 3.97192C86.0098 3.37817 87.002 3.0813 88.3613 3.0813C88.6504 3.0813 88.9355 3.09302 89.2168 3.11646C89.498 3.13989 89.7324 3.17114 89.9199 3.21021V5.24927C89.8027 5.22583 89.666 5.21021 89.5098 5.20239C89.3535 5.19458 89.1895 5.19067 89.0176 5.19067C88.4316 5.19067 88.002 5.32739 87.7285 5.60083C87.4551 5.86646 87.3184 6.26099 87.3184 6.78442V7.88599H89.873V10.136H87.377V20.3782H84.459Z" fill="white"/>
<path d="M78.5054 20.3782V7.88599H81.4233V20.3782H78.5054ZM79.9702 6.03442C79.5093 6.03442 79.1187 5.87817 78.7983 5.56567C78.478 5.24536 78.3179 4.86255 78.3179 4.41724C78.3179 3.97192 78.478 3.59302 78.7983 3.28052C79.1187 2.96021 79.5093 2.80005 79.9702 2.80005C80.4312 2.80005 80.8179 2.96021 81.1304 3.28052C81.4507 3.59302 81.6108 3.97192 81.6108 4.41724C81.6108 4.86255 81.4507 5.24536 81.1304 5.56567C80.8179 5.87817 80.4312 6.03442 79.9702 6.03442Z" fill="white"/>
<path d="M58.4307 20.3782V7.88599H61.3369V9.87817H61.4307C61.6963 9.19067 62.1338 8.6438 62.7432 8.23755C63.3525 7.8313 64.0674 7.62817 64.8877 7.62817C65.4658 7.62817 65.9854 7.72583 66.4463 7.92114C66.9072 8.11646 67.3018 8.39771 67.6299 8.76489C67.958 9.13208 68.2002 9.57739 68.3564 10.1008H68.4385C68.6416 9.59302 68.9307 9.15552 69.3057 8.78833C69.6885 8.42114 70.1338 8.13599 70.6416 7.93286C71.1572 7.72974 71.7158 7.62817 72.3174 7.62817C73.1377 7.62817 73.8525 7.80396 74.4619 8.15552C75.0713 8.49927 75.5439 8.98364 75.8799 9.60864C76.2158 10.2258 76.3838 10.9563 76.3838 11.8V20.3782H73.4658V12.5149C73.4658 11.7415 73.2744 11.1438 72.8916 10.7219C72.5088 10.3 71.9541 10.0891 71.2275 10.0891C70.751 10.0891 70.333 10.1985 69.9736 10.4172C69.6143 10.636 69.333 10.9368 69.1299 11.3196C68.9268 11.7024 68.8252 12.1438 68.8252 12.6438V20.3782H65.9775V12.3625C65.9775 11.6516 65.7783 11.0969 65.3799 10.6985C64.9893 10.2922 64.4502 10.0891 63.7627 10.0891C63.2861 10.0891 62.8643 10.2063 62.4971 10.4407C62.1377 10.6672 61.8525 10.9797 61.6416 11.3782C61.4385 11.7766 61.3369 12.2297 61.3369 12.7375V20.3782H58.4307Z" fill="white"/>
<path d="M49.5239 20.6243C48.6099 20.6243 47.8286 20.4407 47.1802 20.0735C46.5396 19.6985 46.0513 19.1633 45.7153 18.468C45.3872 17.7649 45.2231 16.929 45.2231 15.9602V7.88599H48.1411V15.3625C48.1411 16.2688 48.3442 16.9641 48.7505 17.4485C49.1646 17.9329 49.7896 18.175 50.6255 18.175C51.1958 18.175 51.688 18.05 52.1021 17.8C52.5161 17.5422 52.8364 17.1868 53.063 16.7336C53.2896 16.2727 53.4028 15.7375 53.4028 15.1282V7.88599H56.3208V20.3782H53.4028V18.4329H53.3208C53.0005 19.1047 52.52 19.6399 51.8794 20.0383C51.2466 20.429 50.4614 20.6243 49.5239 20.6243Z" fill="white"/>
<path d="M33 20.3782V3.46802H36.0117V17.8352H43.6992V20.3782H33Z" fill="white"/>
</svg>
